<?xml version="1.0" encoding="utf-8"?>
<svg version="1.1" xmlns="http://www.w3.org/2000/svg" width="463" height="448" xmlns:bx="https://boxy-svg.com">
  <path d="" fill="#000000" transform="translate(0,0)"/>
  <path d="" fill="#FFFF00" transform="translate(0,0)"/>
  <path d="" fill="#7F7F00" transform="translate(0,0)"/>
  <path d="" fill="#000000" transform="translate(0,0)"/>
  <path d="" fill="#000000" transform="translate(0,0)"/>
  <path d="" fill="#FF0000" transform="translate(0,0)"/>
  <path d="" fill="#FF0000" transform="translate(0,0)"/>
  <path d="" fill="#000000" transform="translate(0,0)"/>
  <path d="" fill="#000000" transform="translate(0,0)"/>
  <path d="" fill="#000000" transform="translate(0,0)"/>
  <path d="" fill="#FF0000" transform="translate(0,0)"/>
  <path d="" fill="#FF0000" transform="translate(0,0)"/>
  <path d="" fill="#FF0000" transform="translate(0,0)"/>
  <path d="" fill="#000000" transform="translate(0,0)"/>
  <path d="" fill="#FFFF00" transform="translate(0,0)"/>
  <path d="" fill="#FF0000" transform="translate(0,0)"/>
  <path d="" fill="#FF0000" transform="translate(0,0)"/>
  <path d="" fill="#FF0000" transform="translate(0,0)"/>
  <path d="" fill="#FF0000" transform="translate(0,0)"/>
  <path d="" fill="#000000" transform="translate(0,0)"/>
  <path d="" fill="#FFFF00" transform="translate(0,0)"/>
  <path d="" fill="#000000" transform="translate(0,0)"/>
  <path d="" fill="#FF0000" transform="translate(0,0)"/>
  <path d="" fill="#000000" transform="translate(0,0)"/>
  <path d="" fill="#FFFF00" transform="translate(0,0)"/>
  <path d="" fill="#FF0000" transform="translate(0,0)"/>
  <path d="" fill="#FF0000" transform="translate(0,0)"/>
  <path d="" fill="#FF0000" transform="translate(0,0)"/>
  <path d="" fill="#000000" transform="translate(0,0)"/>
  <path d="" fill="#000000" transform="translate(0,0)"/>
  <path d="" fill="#FF0000" transform="translate(0,0)"/>
  <path d="" fill="#FFFF00" transform="translate(0,0)"/>
  <path d="" fill="#000000" transform="translate(0,0)"/>
  <path d="" fill="#FF0000" transform="translate(0,0)"/>
  <path d="" fill="#FF0000" transform="translate(0,0)"/>
  <path d="" fill="#FFFF00" transform="translate(0,0)"/>
  <path d="" fill="#FF0000" transform="translate(0,0)"/>
  <path d="" fill="#FF0000" transform="translate(0,0)"/>
  <path d="" fill="#000000" transform="translate(0,0)"/>
  <path d="" fill="#FF0000" transform="translate(0,0)"/>
  <path d="" fill="#000000" transform="translate(0,0)"/>
  <path d="" fill="#FF0000" transform="translate(0,0)"/>
  <path d="" fill="#000000" transform="translate(0,0)"/>
  <path d="" fill="#FF0000" transform="translate(0,0)"/>
  <path d="" fill="#FF0000" transform="translate(0,0)"/>
  <path d="" fill="#000000" transform="translate(0,0)"/>
  <path d="" fill="#000000" transform="translate(0,0)"/>
  <path d="" fill="#000000" transform="translate(0,0)"/>
  <path d="" fill="#000000" transform="translate(0,0)"/>
  <path d="" fill="#000000" transform="translate(0,0)"/>
  <path d="" fill="#000000" transform="translate(0,0)"/>
  <path d="" fill="#FF0000" transform="translate(0,0)"/>
  <path d="" fill="#FFFF00" transform="translate(0,0)"/>
  <path d="" fill="#000000" transform="translate(0,0)"/>
  <path d="" fill="#000000" transform="translate(0,0)"/>
  <path d="" fill="#000000" transform="translate(0,0)"/>
  <path d="" fill="#000000" transform="translate(0,0)"/>
  <path d="" fill="#000000" transform="translate(0,0)"/>
  <path d="" fill="#FFFF00" transform="translate(0,0)"/>
  <path d="" fill="#000000" transform="translate(0,0)"/>
  <path d="" fill="#000000" transform="translate(0,0)"/>
  <path d="" fill="#000000" transform="translate(0,0)"/>
  <path d="" fill="#000000" transform="translate(0,0)"/>
  <path d="" fill="#FFFF00" transform="translate(0,0)"/>
  <path d="" fill="#000000" transform="translate(0,0)"/>
  <path d="" fill="#000000" transform="translate(0,0)"/>
  <path d="" fill="#000000" transform="translate(0,0)"/>
  <path d="" fill="#FFFF00" transform="translate(0,0)"/>
  <path d="" fill="#000000" transform="translate(0,0)"/>
  <path d="" fill="#FFFF00" transform="translate(0,0)"/>
  <path d="" fill="#FFFF00" transform="translate(0,0)"/>
  <path d="" fill="#000000" transform="translate(0,0)"/>
  <path d="" fill="#000000" transform="translate(0,0)"/>
  <path d="" fill="#FFFF00" transform="translate(0,0)"/>
  <path d="" fill="#FFFF00" transform="translate(0,0)"/>
  <path d="" fill="#FF0000" transform="translate(0,0)"/>
  <path d="" fill="#000000" transform="translate(0,0)"/>
  <path d="" fill="#000000" transform="translate(0,0)"/>
  <path d="" fill="#000000" transform="translate(0,0)"/>
  <path d="" fill="#FF0000" transform="translate(0,0)"/>
  <path d="" fill="#000000" transform="translate(0,0)"/>
  <path d="" fill="#FFFF00" transform="translate(0,0)"/>
  <path d="" fill="#FFFF00" transform="translate(0,0)"/>
  <path d="" fill="#FF0000" transform="translate(0,0)"/>
  <path d="" fill="#000000" transform="translate(0,0)"/>
  <path d="" fill="#FF0000" transform="translate(0,0)"/>
  <path d="" fill="#000000" transform="translate(0,0)"/>
  <path d="" fill="#FFFF00" transform="translate(0,0)"/>
  <path d="" fill="#FFFF00" transform="translate(0,0)"/>
  <path d="" fill="#FFFF00" transform="translate(0,0)"/>
  <path d="" fill="#FF0000" transform="translate(0,0)"/>
  <path d="" fill="#FFFF00" transform="translate(0,0)"/>
  <path d="" fill="#FFFF00" transform="translate(0,0)"/>
  <path d="" fill="#FF0000" transform="translate(0,0)"/>
  <path d="" fill="#000000" transform="translate(0,0)"/>
  <path d="" fill="#000000" transform="translate(0,0)"/>
  <path d="" fill="#000000" transform="translate(0,0)"/>
  <path d="" fill="#FF0000" transform="translate(0,0)"/>
  <path d="" fill="#000000" transform="translate(0,0)"/>
  <path d="" fill="#000000" transform="translate(0,0)"/>
  <path d="" fill="#000000" transform="translate(0,0)"/>
  <path d="" fill="#FF0000" transform="translate(0,0)"/>
  <defs>
    <bx:grid x="0" y="0" width="140.29" height="149.321"/>
    <bx:export>
      <bx:file format="svg"/>
    </bx:export>
  </defs>
  <path fill="#000000" style="stroke-width: 1;"/>
  <path fill="#000000" style="stroke-width: 1;"/>
  <path d="M 210.563 0 C 213.722 0 223.83 1.79 225.436 4.89 C 229.668 8.59 229.504 16.32 229.578 23.14 C 229.632 28.13 228.728 36.66 231.415 40.63 C 233.098 43.13 244.474 57.438 244.474 58.328 C 246.41 58.758 256.912 64.708 263.651 64.648 C 264.681 64.658 281.278 63.768 286.713 61.498 C 288.262 61.498 301.536 55.008 301.935 54.118 C 305.478 51.588 306 51.638 310.181 52.358 C 312.995 55.488 314.425 58.418 314.875 62.798 C 314.601 64.908 314.323 66.998 314.023 69.098 C 312.765 80.258 319.945 100.668 320.742 100.668 C 325.436 106.498 342.943 115.338 347.806 114.128 C 351.252 113.718 351.252 113.718 354.406 115.108 C 357.705 118.188 359.037 121.058 360.64 125.468 C 360.64 126.328 360.64 127.198 360.64 128.078 C 359.865 128.078 359.091 128.078 358.293 128.078 C 358.293 129.808 358.293 131.528 358.293 133.308 C 355.433 136.738 348.929 142.448 347.732 142.448 C 347.344 143.308 339.541 147.668 338.344 147.668 C 338.344 148.528 338.344 149.388 338.344 150.278 C 334.934 151.918 306.685 155.948 305.488 155.498 C 305.59 158.058 306.457 169.918 306.661 171.168 C 310.323 173.888 311.759 174.098 315.976 174.598 C 321.383 175.708 321.383 175.708 323.603 178.558 C 324.807 181.278 328.824 193.198 332.477 198.588 C 334.805 199.518 339.518 202.925 339.518 203.805 C 346.891 207.355 368.396 201.745 371.201 199.895 C 377.39 195.918 377.39 195.918 381.908 196.218 C 387.407 197.948 387.407 197.948 389.976 199.895 C 390.69 203.005 390.69 203.005 390.856 206.585 C 390.923 207.775 388.427 216.865 387.629 216.865 C 387.483 217.782 382.559 231.227 381.761 231.227 C 380.987 233.381 376.341 239.802 375.968 240.856 C 374.721 244.283 370.426 249.479 370.027 250.811 C 367.767 252.576 363.137 255.35 362.193 255.921 C 359.466 257.339 339.963 265.173 337.171 265.173 C 337.319 267.706 337.319 267.706 337.469 270.288 C 338.162 283.111 337.189 295.358 337.171 308.258 C 342.866 308.047 352.254 308.859 355.946 308.258 C 356.134 302.955 355.968 289.137 355.946 284.757 C 359.747 284.533 409.798 283.293 420.87 285.052 C 420.87 304.059 420.87 424.708 420.87 447.959 C 410.576 447.959 7.4 448.079 0 447.959 C 0 432.481 0 291.946 0 281.465 C 9.07 282.061 60.846 281.743 67.481 282.526 C 68.09 291.097 67.618 298.638 68.451 305.647 C 73.872 305.647 79.294 305.647 84.882 305.647 C 84.882 297.892 83.696 269.129 84.882 265.173 C 83.72 265.173 74.987 263.378 71.971 262.562 C 70.317 261.771 62.983 259.41 57.219 255.012 C 50.937 249.734 47.621 248.909 41.458 236.563 C 35.74 227.062 33.5 213.836 34.42 202.505 C 35.6 198.838 35.98 197.718 39.11 195.978 C 45.953 195.248 49.242 196.768 54.804 201.115 C 60.788 205.535 65.811 208.505 73.145 207.725 C 76.923 206.795 86.419 202.625 88.402 198.588 C 89.176 198.588 93.894 189.808 96.029 187.738 C 98.141 185.418 100.136 176.388 102.483 173.858 C 104.83 172.478 114.171 172.478 116.564 172.478 C 116.177 169.888 116.564 156.808 117.738 154.198 C 116.553 154.408 115.368 154.628 114.147 154.848 C 103.88 156.298 96.698 155.008 87.463 150.228 C 84.752 148.828 73.286 142.378 69.624 138.528 C 68.674 137.558 63.769 130.058 62.584 129.388 C 64.274 121.098 64.274 121.098 66.914 117.718 C 71.502 115.368 75.984 115.718 80.774 117.308 C 85.398 117.838 94.269 110.688 94.269 109.808 C 95.419 108.468 103.657 98.058 105.558 95.288 C 107.611 90.508 107.376 86.848 107.212 81.638 C 107.177 78.468 107.312 62.348 108.063 58.378 C 108.838 58.378 111.472 53.688 111.871 52.358 C 115.356 52.788 118.174 51.798 121.765 52.238 C 121.765 53.108 122.432 55.388 122.432 56.278 C 123.324 56.658 128.299 58.888 131.819 61.498 C 133.368 61.498 142.38 64.528 142.38 65.418 C 162.803 65.478 162.803 65.478 180.883 56.118 C 184.448 50.898 186.88 45.24 189.317 39.3 C 190.091 39.3 192.824 27 191.664 21.03 C 191.664 15.96 191.374 13.48 193.437 9.08 C 195.894 6.79 196.071 5.36 198.894 3.41 C 199.826 2.76 204.499 0 210.563 0 Z M 209.624 17.45 C 208.849 18.32 206.543 19.37 205.745 20.26 C 206.119 23.01 205.832 23.78 206.631 26.25 C 208.955 26.25 211.182 26.54 213.576 26.54 C 213.189 24.38 214.525 21.75 214.126 19.53 C 211.906 18.64 212.098 17.87 209.624 17.45 Z M 201.564 47.07 C 200.338 49.91 200.817 51.178 199.878 54.968 C 206.848 54.968 213.818 54.968 221 54.968 C 220.911 50.738 220.551 50.518 219.699 47.07 C 217.602 46.87 205.153 46.12 201.564 47.07 Z M 227.304 59.878 C 223.648 60.338 199.424 62.218 194.622 60.738 C 194.235 62.028 194.41 66.688 194.011 68.028 C 206.402 68.028 218.794 68.028 231.561 68.028 C 230.786 67.598 228.641 63.008 227.304 59.878 Z M 127.125 78.468 C 127.032 80.138 93.096 131.108 93.096 131.998 C 104.22 134.098 104.22 134.098 114.945 131.738 C 117.01 129.768 146.253 83.858 147.073 82.388 C 144.633 81.738 131.702 78.298 127.125 78.468 Z M 294.927 78.468 C 291.748 78.468 280.604 82.098 279.672 82.388 C 280.378 86.918 302.153 129.948 308.283 131.758 C 311.137 131.418 322.867 131.948 326.627 130.698 C 327.015 128.548 296.322 81.198 294.927 78.468 Z M 152.94 82.388 C 151.826 85.028 122.303 131.628 122.432 133.308 C 132.113 133.308 141.794 133.308 151.767 133.308 C 163.292 110.548 172.49 84.578 172.889 83.688 C 166.306 83.258 159.723 82.828 152.94 82.388 Z M 178.756 82.388 C 178.499 83.408 167.667 117.138 159.981 131.998 C 163.239 133.028 182.336 133.328 184.623 133.308 C 188.991 124.618 196.53 89.318 196.357 82.388 C 193.26 82.388 180.352 82.388 178.756 82.388 Z M 204.572 82.388 C 202.924 88.538 195.015 127.078 195.184 131.998 C 206.414 132.428 217.644 132.858 229.214 133.308 C 227.471 126.838 221.494 86.658 221 82.388 C 215.578 82.388 210.157 82.388 204.572 82.388 Z M 228.04 82.388 C 228.559 92.168 234.032 129.218 235.081 133.308 C 243.6 133.308 252.119 133.308 260.897 133.308 C 260.011 128.378 243.353 84.448 240.948 82.388 C 239.371 82.768 230.766 82.908 228.04 82.388 Z M 250.336 82.388 C 251.153 85.118 262.798 123.668 270.284 131.998 C 272.289 132.118 294.095 132.028 297.274 131.998 C 296.418 131.318 272.091 84.608 271.458 82.388 C 267.757 80.908 256.32 82.828 250.336 82.388 Z M 135.34 150.278 C 135.34 151.568 135.34 152.868 135.34 154.198 C 139.024 155.408 268.542 155.528 286.713 155.498 C 287.487 153.778 288.262 152.058 289.059 150.278 C 238.332 150.278 187.604 150.278 135.34 150.278 Z M 132.993 165.948 C 133.004 167.298 133.063 186.538 131.819 190.748 C 125.87 191.678 120.226 192.198 114.218 192.058 C 114.218 194.218 114.218 196.368 114.218 198.588 C 143.624 200.205 173.029 200.095 202.459 200.065 C 209.464 200.055 216.468 200.055 223.471 200.065 C 252.394 200.095 281.283 200.035 310.181 198.588 C 310.569 196.428 310.956 194.278 311.355 192.058 C 310.041 191.998 292.819 190.928 289.059 188.138 C 288.8 184.498 288.993 169.688 289.059 167.248 C 284.399 166.228 272.13 166.998 270.284 167.248 C 269.897 174.578 269.51 181.898 269.111 189.448 C 264.464 189.448 259.817 189.448 255.03 189.448 C 253.998 182.848 254.13 167.258 252.683 165.948 C 249.714 165.848 237.148 165.918 235.081 165.948 C 233.22 170.088 232.852 187.018 232.734 189.448 C 228.576 190.988 190.76 190.908 188.143 189.448 C 187.562 177.818 187.562 177.818 186.97 165.948 C 180.774 165.948 174.578 165.948 168.195 165.948 C 168.195 173.698 168.195 181.458 168.195 189.448 C 162.444 191.578 156.628 190.828 150.593 190.748 C 150.012 178.468 150.012 178.468 149.42 165.948 C 144 165.948 138.578 165.948 132.993 165.948 Z M 203.304 166.708 C 203.304 170.588 203.297 181.878 203.398 182.918 C 205.501 182.958 215.477 183.508 219 182.308 C 218.537 177.228 218.653 172.138 218.653 167.248 C 213.619 166.818 208.491 167.148 203.304 166.708 Z M 102.057 268.267 C 101.992 274.039 101.286 305.005 101.31 308.258 C 105.569 308.258 109.829 308.258 114.218 308.258 C 114.276 306.608 115.188 288.206 115.912 281.043 C 122.67 279.665 156.627 281.62 163.704 281.714 C 164.924 286.174 165.501 301.072 164.877 309.387 C 172.43 309.315 175.789 309.582 181.103 308.258 C 181.49 299.21 181.877 290.163 182.276 280.84 C 200.863 280.84 222.772 281.418 241.922 281.418 C 241.103 287.419 242.605 298.638 242.122 306.953 C 247.255 306.774 254.906 307.715 258.86 306.999 C 259.247 298.813 258.328 289.523 258.727 281.089 C 274.464 280.511 292.479 280.074 306.661 280.84 C 307.702 284.313 308.891 305.537 309.008 308.258 C 312.493 308.258 315.978 308.258 319.569 308.258 C 319.598 303.076 319.929 271.807 318.396 270.395 C 316.64 270.271 241.6 270.324 233.423 270.33 C 217.274 270.343 201.125 270.365 184.976 270.393 C 157.479 270.429 129.551 268.267 102.057 268.267 Z M 271.37 295.275 C 271.268 297.314 271.145 319.398 271.169 322.626 C 256.629 322.771 242.537 323.938 228.04 322.62 C 227.653 314.003 227.266 305.386 226.867 296.508 C 216.412 296.508 205.956 296.508 195.184 296.508 C 194.797 305.556 194.41 314.604 194.011 323.926 C 180.809 325.395 155.191 324.107 151.767 323.926 C 151.186 310.354 151.186 310.354 150.593 296.508 C 146.939 296.482 128.275 296.24 127.125 297.813 C 127.043 301.192 126.48 318.608 125.952 323.926 C 100.394 323.926 74.834 323.926 48.502 323.926 C 48.502 315.74 49.888 307.072 49.888 298.638 C 44.475 297.779 24.88 298.638 20.96 298.638 C 21.36 303.303 21.94 340.041 22.2 344.928 C 27.94 344.922 53.196 343.51 56.717 344.816 C 55.942 347.401 57.062 348.881 56.264 352.807 C 50.685 353.59 25.78 352.624 22.35 353.797 C 22.39 356.495 22.94 380.447 22.68 383.984 C 25.63 385.623 86.779 386.293 91.314 385.102 C 91.373 381.617 91.916 353.645 92.034 350.636 C 87.957 350.335 83.826 349.391 74.436 350.864 C 74.049 349.572 73.925 346.329 73.526 345.177 C 77.832 344.073 150.043 344.244 154.113 345.067 C 154.501 345.929 154.652 348.678 154.579 350.156 C 149.785 350.036 100.758 349.995 95.443 351.344 C 95.443 362.546 96.175 374.602 96.175 386.144 C 114.687 387.208 134.353 388.216 154.845 386.144 C 155.233 387.006 158.435 380.685 159.175 379.007 C 159.536 378.168 163.196 368.911 166.305 365.706 C 166.305 364.844 169.797 360.639 170.488 360.259 C 176.797 356.752 175.365 358.471 181.103 353.955 C 181.788 350.58 181.877 344.842 182.276 343.51 C 202.412 343.51 222.549 343.51 243.295 343.51 C 243.682 346.957 244.07 350.404 244.469 353.955 C 246.881 356.639 250.182 358.534 252.935 360.646 C 261.548 367.892 263.295 371.906 267.456 382.862 C 268.89 384.75 280.87 388.012 292.58 385.29 C 292.58 374.088 292.58 362.885 292.58 351.344 C 285.964 349.242 266.334 351.421 266.323 345.597 C 267.147 342.313 304.284 343.447 312.528 343.51 C 312.528 344.803 312.162 347.742 312.162 349.074 C 312.55 349.505 302.859 349.594 297.274 350.038 C 297.242 355.152 297.646 383.621 298.447 386.595 C 301.893 386.85 346.909 386.999 357.346 386.778 C 357.367 378.78 357.378 361.763 357.378 350.221 C 351.569 349.79 346.493 351.006 340.508 350.563 C 340.508 349.27 340.142 345.964 340.142 344.633 C 358.729 344.202 380.794 343.771 399.944 343.327 C 400.449 335.273 401.271 303.173 400.967 298.638 C 397.324 298.601 373.317 297.708 370.027 299.119 C 369.64 307.305 369.253 315.492 368.854 323.926 C 344.071 323.926 319.287 323.926 293.753 323.926 C 293.753 314.447 293.753 304.968 293.753 295.202 C 288.562 295.162 273.922 294.069 271.37 295.275 Z M 362.394 350.429 C 362.307 368.596 361.209 368.596 362.437 385.863 C 374.237 384.765 388.417 385.314 400.386 385.314 C 400.688 377.584 399.695 356.289 399.471 350.795 C 386.692 350.795 375.56 350.429 362.394 350.429 Z M 191.664 355.261 C 191.131 356.069 181.267 362.087 178.134 366.574 C 170.779 377.107 164.004 388.133 160.935 399.244 C 158.463 409.273 157.376 419.361 156.46 429.681 C 158.318 429.753 170.081 430.512 172.782 428.729 C 172.721 426.909 173.041 411.958 173.021 410.1 C 172.845 394.022 174.798 398.465 177.497 389.382 C 178.091 382.686 184.512 378.81 188.551 374.8 C 188.938 373.508 203.897 368.022 204.296 366.69 C 205.071 366.69 221.659 364.736 227.286 368.963 C 239.866 374.434 238.957 374.34 247.4 383 C 252.7 392.878 254.048 397.957 256.513 409.866 C 257.534 420.366 255.251 423.251 256.974 427.489 C 261.887 428.147 264.225 429.51 268.517 427.587 C 267.001 420.354 265.182 394.61 259.709 386.988 C 255.098 379.433 252.277 371.781 247.945 366.936 C 245.248 362.951 238.854 356.127 237.669 354.149 C 234.377 353.439 221.201 352.221 210.888 352.694 C 201.065 353.144 201.061 352.341 191.664 355.261 Z M 400.752 389.207 C 392.291 389.885 336.437 391.981 332.477 391.818 C 331.6 396.232 332.5 423.579 331.562 428.375 C 339.021 428.618 397.808 427.87 400.537 428.375 C 400.776 415.038 402.242 402.136 400.752 389.207 Z M 154.113 391.488 C 146.286 391.301 125.333 392.395 119.352 391.818 C 105.599 391.968 67.102 392.504 66.104 392.449 C 64.661 393.76 65.509 417.676 65.521 418.845 C 62.721 420.068 62.406 420.383 60.127 419.322 C 59.799 412.087 62.826 396.58 59.153 392.449 C 55.597 391.47 24.61 391.503 19.76 391.301 C 19.74 394.203 19.06 423.812 20.34 429.681 C 62.549 429.681 104.76 429.681 148.246 429.681 C 149.408 421.064 150.57 412.447 151.767 403.568 C 152.541 399.26 153.316 395.927 154.113 391.488 Z M 271.563 391.509 C 271.176 391.509 274.802 422.047 276.001 428.146 C 283.289 428.178 321.36 428.865 326.287 428.192 C 326.497 422.386 326.068 399.339 327.196 392.331 C 321.024 390.652 271.962 392.84 271.563 391.509 Z" fill="#000000" style="stroke-width: 1; transform-box: fill-box; transform-origin: 49.0579% 53.0973%;"/>
  <path fill="#000000" style="stroke-width: 1;"/>
  <path fill="#000000" style="stroke-width: 1;"/>
  <path fill="#000000" style="stroke-width: 1;"/>
  <path fill="#000000" style="stroke-width: 1;"/>
  <path fill="#000000" style="stroke-width: 1;"/>
  <path fill="#000000" style="stroke-width: 1;"/>
  <path fill="#000000" style="stroke-width: 1;"/>
  <path fill="#000000" style="stroke-width: 1;"/>
  <path fill="#000000" style="stroke-width: 1;"/>
  <path fill="#000000" style="stroke-width: 1;"/>
  <path fill="#000000" style="stroke-width: 1;"/>
  <path fill="#000000" style="stroke-width: 1;"/>
  <path fill="#000000" style="stroke-width: 1;"/>
  <path fill="#000000" style="stroke-width: 1;"/>
  <path fill="#000000" style="stroke-width: 1;"/>
  <path fill="#000000" style="stroke-width: 1;"/>
  <path fill="#000000" style="stroke-width: 1;"/>
  <path fill="#000000" style="stroke-width: 1;"/>
  <path fill="#000000" style="stroke-width: 1;"/>
  <path fill="#000000" style="stroke-width: 1;"/>
  <path fill="#000000" style="stroke-width: 1;"/>
  <path fill="#000000" style="stroke-width: 1;"/>
  <path fill="#000000" style="stroke-width: 1;"/>
  <path fill="#000000" style="stroke-width: 1;"/>
  <path fill="#000000" style="stroke-width: 1;"/>
  <path fill="#000000" style="stroke-width: 1;"/>
  <path fill="#000000" style="stroke-width: 1;"/>
  <path fill="#000000" style="stroke-width: 1;"/>
  <path fill="#000000" style="stroke-width: 1;"/>
  <path fill="#000000" style="stroke-width: 1;"/>
  <path fill="#000000" style="stroke-width: 1;"/>
  <path fill="#000000" style="stroke-width: 1;"/>
  <path fill="#000000" style="stroke-width: 1;"/>
  <path fill="#000000" style="stroke-width: 1;"/>
  <path fill="#000000" style="stroke-width: 1;"/>
  <path fill="#000000" style="stroke-width: 1;"/>
  <path fill="#000000" style="stroke-width: 1;"/>
  <path fill="#000000" style="stroke-width: 1;"/>
  <path fill="#000000" style="stroke-width: 1;"/>
  <path fill="#000000" style="stroke-width: 1;"/>
  <path fill="#000000" style="stroke-width: 1;"/>
  <path fill="#000000" style="stroke-width: 1;"/>
  <path fill="#000000" style="stroke-width: 1;"/>
  <path fill="#000000" style="stroke-width: 1;"/>
  <path fill="#000000" style="stroke-width: 1;"/>
  <path fill="#000000" style="stroke-width: 1;"/>
  <path fill="#000000" style="stroke-width: 1;"/>
  <path fill="#000000" style="stroke-width: 1;"/>
  <path fill="#000000" style="stroke-width: 1;"/>
  <path fill="#000000" style="stroke-width: 1;"/>
  <path fill="#000000" style="stroke-width: 1;"/>
  <path fill="#000000" style="stroke-width: 1;"/>
  <path fill="#000000" style="stroke-width: 1;"/>
  <path fill="#000000" style="stroke-width: 1;"/>
  <path fill="#000000" style="stroke-width: 1;"/>
  <path fill="#000000" style="stroke-width: 1;"/>
  <path fill="#000000" style="stroke-width: 1;"/>
  <path fill="#000000" style="stroke-width: 1;"/>
  <path fill="#000000" style="stroke-width: 1;"/>
  <path fill="#000000" style="stroke-width: 1;"/>
  <path fill="#000000" style="stroke-width: 1;"/>
  <path fill="#000000" style="stroke-width: 1;"/>
  <path fill="#000000" style="stroke-width: 1;"/>
  <path fill="#000000" style="stroke-width: 1;"/>
  <path fill="#000000" style="stroke-width: 1;"/>
  <path fill="#000000" style="stroke-width: 1;"/>
  <path fill="#000000" style="stroke-width: 1;"/>
  <path fill="#000000" style="stroke-width: 1;"/>
  <path fill="#000000" style="stroke-width: 1;"/>
  <path fill="#000000" style="stroke-width: 1;"/>
  <path fill="#000000" style="stroke-width: 1;"/>
  <path fill="#000000" style="stroke-width: 1;"/>
  <path fill="#000000" style="stroke-width: 1;"/>
  <path fill="#000000" style="stroke-width: 1;"/>
  <path fill="#000000" style="stroke-width: 1;"/>
  <path fill="#000000" style="stroke-width: 1;"/>
  <path fill="#000000" style="stroke-width: 1;"/>
  <path fill="#000000" style="stroke-width: 1;"/>
  <path fill="#000000" style="stroke-width: 1;"/>
  <path fill="#000000" style="stroke-width: 1;"/>
  <path fill="#000000" style="stroke-width: 1;"/>
  <path fill="#000000" style="stroke-width: 1;"/>
  <path fill="#000000" style="stroke-width: 1;"/>
  <path fill="#000000" style="stroke-width: 1;"/>
  <path fill="#000000" style="stroke-width: 1;"/>
  <path fill="#000000" style="stroke-width: 1;"/>
  <path fill="#000000" style="stroke-width: 1;"/>
  <path fill="#000000" style="stroke-width: 1;"/>
  <path fill="#000000" style="stroke-width: 1;"/>
  <path fill="#000000" style="stroke-width: 1;"/>
  <path fill="#000000" style="stroke-width: 1;"/>
  <path fill="#000000" style="stroke-width: 1;"/>
  <path fill="#000000" style="stroke-width: 1;"/>
  <path fill="#000000" style="stroke-width: 1;"/>
  <path fill="#000000" style="stroke-width: 1;"/>
  <path fill="#000000" style="stroke-width: 1;"/>
  <path fill="#000000" style="stroke-width: 1;"/>
  <path fill="#000000" style="stroke-width: 1;"/>
  <path fill="#000000" style="stroke-width: 1;"/>
  <path fill="#000000" style="stroke-width: 1;"/>
  <path fill="#000000" style="stroke-width: 1;"/>
  <path fill="#000000" style="stroke-width: 1;"/>
  <path fill="#000000" style="stroke-width: 1;"/>
  <path fill="#000000" style="stroke-width: 1;"/>
  <path fill="#000000" style="stroke-width: 1;"/>
  <path fill="#000000" style="stroke-width: 1;"/>
  <path fill="#000000" style="stroke-width: 1;"/>
  <path fill="#000000" style="stroke-width: 1;"/>
  <path fill="#000000" style="stroke-width: 1;"/>
  <path fill="#000000" style="stroke-width: 1;"/>
  <path fill="#000000" style="stroke-width: 1;"/>
  <path fill="#000000" style="stroke-width: 1;"/>
  <path fill="#000000" style="stroke-width: 1;"/>
  <path fill="#000000" style="stroke-width: 1;"/>
  <path fill="#000000" style="stroke-width: 1;"/>
  <path fill="#000000" style="stroke-width: 1;"/>
  <path fill="#000000" style="stroke-width: 1;"/>
  <path fill="#000000" style="stroke-width: 1;"/>
  <path fill="#000000" style="stroke-width: 1;"/>
  <path fill="#000000" style="stroke-width: 1;"/>
  <path fill="#000000" style="stroke-width: 1;"/>
  <path fill="#000000" style="stroke-width: 1;"/>
  <path fill="#000000" style="stroke-width: 1;"/>
  <path fill="#000000" style="stroke-width: 1;"/>
  <path fill="#000000" style="stroke-width: 1;"/>
  <path fill="#000000" style="stroke-width: 1;"/>
  <path fill="#000000" style="stroke-width: 1;"/>
  <path fill="#000000" style="stroke-width: 1;"/>
  <path fill="#000000" style="stroke-width: 1;"/>
  <path fill="#000000" style="stroke-width: 1;"/>
  <path fill="#000000" style="stroke-width: 1;"/>
  <path fill="#000000" style="stroke-width: 1;"/>
  <path fill="#000000" style="stroke-width: 1;"/>
  <path fill="#000000" style="stroke-width: 1;"/>
  <path fill="#000000" style="stroke-width: 1;"/>
  <path fill="#000000" style="stroke-width: 1;"/>
  <path fill="#000000" style="stroke-width: 1;"/>
  <path fill="#000000" style="stroke-width: 1;"/>
  <path fill="#000000" style="stroke-width: 1;"/>
  <path fill="#000000" style="stroke-width: 1;"/>
  <path fill="#000000" style="stroke-width: 1;"/>
  <path fill="#000000" style="stroke-width: 1;"/>
  <path fill="#000000" style="stroke-width: 1;"/>
  <path fill="#000000" style="stroke-width: 1;"/>
  <path fill="#000000" style="stroke-width: 1;"/>
  <path fill="#000000" style="stroke-width: 1;"/>
  <path fill="#000000" style="stroke-width: 1;"/>
  <path fill="#000000" style="stroke-width: 1;"/>
  <path fill="#000000" style="stroke-width: 1;"/>
  <path fill="#000000" style="stroke-width: 1;"/>
  <path fill="#000000" style="stroke-width: 1;"/>
  <path fill="#000000" style="stroke-width: 1;"/>
  <path fill="#000000" style="stroke-width: 1;"/>
  <path fill="#000000" style="stroke-width: 1;"/>
  <path fill="#000000" style="stroke-width: 1;"/>
  <path fill="#000000" style="stroke-width: 1;"/>
  <path fill="#000000" style="stroke-width: 1;"/>
  <path fill="#000000" style="stroke-width: 1;"/>
  <path fill="#000000" style="stroke-width: 1;"/>
  <path fill="#000000" style="stroke-width: 1;"/>
  <path fill="#000000" style="stroke-width: 1;"/>
  <path fill="#000000" style="stroke-width: 1;"/>
  <path fill="#000000" style="stroke-width: 1;"/>
  <path fill="#000000" style="stroke-width: 1;"/>
  <path fill="#000000" style="stroke-width: 1;"/>
  <path fill="#000000" style="stroke-width: 1;"/>
  <path fill="#000000" style="stroke-width: 1;"/>
  <path fill="#000000" style="stroke-width: 1;"/>
  <path fill="#000000" style="stroke-width: 1;"/>
  <path fill="#000000" style="stroke-width: 1;"/>
  <path fill="#000000" style="stroke-width: 1;"/>
  <path fill="#000000" style="stroke-width: 1;"/>
  <path fill="#000000" style="stroke-width: 1;"/>
  <path fill="#000000" style="stroke-width: 1;"/>
  <path fill="#000000" style="stroke-width: 1;"/>
  <path fill="#000000" style="stroke-width: 1;"/>
  <path fill="#000000" style="stroke-width: 1;"/>
  <path fill="#000000" style="stroke-width: 1;"/>
  <path fill="#000000" style="stroke-width: 1;"/>
  <path fill="#000000" style="stroke-width: 1;"/>
  <path fill="#000000" style="stroke-width: 1;"/>
  <path fill="#000000" style="stroke-width: 1;"/>
  <path fill="#000000" style="stroke-width: 1;"/>
  <path fill="#000000" style="stroke-width: 1;"/>
  <path fill="#000000" style="stroke-width: 1;"/>
  <path fill="#000000" style="stroke-width: 1;"/>
  <path fill="#000000" style="stroke-width: 1;"/>
  <path fill="#000000" style="stroke-width: 1;"/>
  <path fill="#000000" style="stroke-width: 1;"/>
  <path fill="#000000" style="stroke-width: 1;"/>
  <path fill="#000000" style="stroke-width: 1;"/>
  <path fill="#000000" style="stroke-width: 1;"/>
  <path fill="#000000" style="stroke-width: 1;"/>
  <path fill="#000000" style="stroke-width: 1;"/>
  <path fill="#000000" style="stroke-width: 1;"/>
  <path fill="#000000" style="stroke-width: 1;"/>
  <path fill="#000000" style="stroke-width: 1;"/>
  <path fill="#000000" style="stroke-width: 1;"/>
  <path fill="#000000" style="stroke-width: 1;"/>
  <path fill="#000000" style="stroke-width: 1;"/>
  <path fill="#000000" style="stroke-width: 1;"/>
  <path fill="#000000" style="stroke-width: 1;"/>
  <path fill="#000000" style="stroke-width: 1;"/>
  <path fill="#000000" style="stroke-width: 1;"/>
  <path fill="#000000" style="stroke-width: 1;"/>
  <path fill="#000000" style="stroke-width: 1;"/>
  <path fill="#000000" style="stroke-width: 1;"/>
  <path fill="#000000" style="stroke-width: 1;"/>
  <path fill="#000000" style="stroke-width: 1;"/>
  <path fill="#000000" style="stroke-width: 1;"/>
  <path fill="#000000" style="stroke-width: 1;"/>
  <path fill="#000000" style="stroke-width: 1;"/>
  <path fill="#000000" style="stroke-width: 1;"/>
  <path fill="#000000" style="stroke-width: 1;"/>
  <path fill="#000000" style="stroke-width: 1;"/>
  <path fill="#000000" style="stroke-width: 1;"/>
  <path fill="#000000" style="stroke-width: 1;"/>
  <path fill="#000000" style="stroke-width: 1;"/>
  <path fill="#000000" style="stroke-width: 1;"/>
  <path fill="#000000" style="stroke-width: 1;"/>
  <path fill="#000000" style="stroke-width: 1;"/>
  <path fill="#000000" style="stroke-width: 1;"/>
  <path fill="#000000" style="stroke-width: 1;"/>
  <path d="M 190.251 106.321 C 192.251 107.321 192.251 107.321 192.251 107.321 L 190.251 106.321 Z" fill="#000000" style="stroke-width: 1;"/>
  <path fill="#000000" style="stroke-width: 1;"/>
  <path fill="#000000" style="stroke-width: 1;"/>
  <path fill="#000000" style="stroke-width: 1;"/>
  <path fill="#000000" style="stroke-width: 1;"/>
  <path fill="#000000" style="stroke-width: 1;"/>
  <path fill="#000000" style="stroke-width: 1;"/>
  <path fill="#000000" style="stroke-width: 1;"/>
  <path fill="#000000" style="stroke-width: 1;"/>
  <path fill="#000000" style="stroke-width: 1;"/>
  <path fill="#000000" style="stroke-width: 1;"/>
  <path fill="#000000" style="stroke-width: 1;"/>
  <path fill="#000000" style="stroke-width: 1;"/>
  <path fill="#000000" style="stroke-width: 1;"/>
  <path fill="#000000" style="stroke-width: 1;"/>
  <path d="M 205.251 119.321 C 207.251 120.321 207.251 120.321 207.251 120.321 L 205.251 119.321 Z" fill="#000000" style="stroke-width: 1;"/>
  <path fill="#000000" style="stroke-width: 1;"/>
  <path fill="#000000" style="stroke-width: 1;"/>
  <path fill="#000000" style="stroke-width: 1;"/>
  <path fill="#000000" style="stroke-width: 1;"/>
  <path fill="#000000" style="stroke-width: 1;"/>
  <path fill="#000000" style="stroke-width: 1;"/>
  <path fill="#000000" style="stroke-width: 1;"/>
  <path fill="#000000" style="stroke-width: 1;"/>
  <path fill="#000000" style="stroke-width: 1;"/>
  <path fill="#000000" style="stroke-width: 1;"/>
  <path fill="#000000" style="stroke-width: 1;"/>
  <path fill="#000000" style="stroke-width: 1;"/>
  <path fill="#000000" style="stroke-width: 1;"/>
  <path fill="#000000" style="stroke-width: 1;"/>
  <path fill="#000000" style="stroke-width: 1;"/>
  <path fill="#000000" style="stroke-width: 1;"/>
  <path fill="#000000" style="stroke-width: 1;"/>
  <path fill="#000000" style="stroke-width: 1;"/>
  <path fill="#000000" style="stroke-width: 1;"/>
  <path fill="#000000" style="stroke-width: 1;"/>
  <path fill="#000000" style="stroke-width: 1;"/>
  <path fill="#000000" style="stroke-width: 1;"/>
  <path fill="#000000" style="stroke-width: 1;"/>
  <path fill="#000000" style="stroke-width: 1;"/>
  <path fill="#000000" style="stroke-width: 1;"/>
  <path fill="#000000" style="stroke-width: 1;"/>
  <path fill="#000000" style="stroke-width: 1;"/>
  <path fill="#000000" style="stroke-width: 1;"/>
  <path fill="#000000" style="stroke-width: 1;"/>
  <path fill="#000000" style="stroke-width: 1;"/>
  <path fill="#000000" style="stroke-width: 1;"/>
  <path fill="#000000" style="stroke-width: 1;"/>
</svg>